<mxfile host="app.diagrams.net" modified="2024-04-10T02:57:14.784Z" agent="Mozilla/5.0 (Windows NT 10.0; Win64; x64) AppleWebKit/537.36 (KHTML, like Gecko) Chrome/123.0.0.0 Safari/537.36 Edg/123.0.0.0" etag="-RnmIOrMR24hxDd6Qq2E" version="24.2.1" type="device">
  <diagram name="Page-1" id="XMJix4HuYgDNALkS3juX">
    <mxGraphModel dx="2583" dy="2039" grid="1" gridSize="10" guides="1" tooltips="1" connect="1" arrows="1" fold="1" page="1" pageScale="1" pageWidth="850" pageHeight="1100" math="0" shadow="0">
      <root>
        <mxCell id="0" />
        <mxCell id="1" parent="0" />
        <mxCell id="-YHRpORkyLnS3Ja7K1pf-124" value="" style="rounded=0;whiteSpace=wrap;html=1;" vertex="1" parent="1">
          <mxGeometry x="-40" y="520" width="760" height="650" as="geometry" />
        </mxCell>
        <mxCell id="-YHRpORkyLnS3Ja7K1pf-98" value="" style="rounded=0;whiteSpace=wrap;html=1;" vertex="1" parent="1">
          <mxGeometry x="-30" y="-130" width="1720" height="430" as="geometry" />
        </mxCell>
        <mxCell id="-YHRpORkyLnS3Ja7K1pf-69" style="edgeStyle=orthogonalEdgeStyle;rounded=0;orthogonalLoop=1;jettySize=auto;html=1;exitX=1;exitY=0.5;exitDx=0;exitDy=0;" edge="1" parent="1" source="-YHRpORkyLnS3Ja7K1pf-68" target="-YHRpORkyLnS3Ja7K1pf-71">
          <mxGeometry relative="1" as="geometry">
            <mxPoint x="400" y="110.44444444444446" as="targetPoint" />
          </mxGeometry>
        </mxCell>
        <mxCell id="-YHRpORkyLnS3Ja7K1pf-70" value="Aggregate Team Data" style="edgeLabel;html=1;align=center;verticalAlign=middle;resizable=0;points=[];" vertex="1" connectable="0" parent="-YHRpORkyLnS3Ja7K1pf-69">
          <mxGeometry x="-0.1925" y="1" relative="1" as="geometry">
            <mxPoint as="offset" />
          </mxGeometry>
        </mxCell>
        <mxCell id="-YHRpORkyLnS3Ja7K1pf-68" value="Player History" style="rounded=0;whiteSpace=wrap;html=1;" vertex="1" parent="1">
          <mxGeometry x="30" y="80.44" width="120" height="60" as="geometry" />
        </mxCell>
        <mxCell id="-YHRpORkyLnS3Ja7K1pf-78" style="edgeStyle=orthogonalEdgeStyle;rounded=0;orthogonalLoop=1;jettySize=auto;html=1;exitX=1;exitY=0.5;exitDx=0;exitDy=0;entryX=0;entryY=0.5;entryDx=0;entryDy=0;" edge="1" parent="1" source="-YHRpORkyLnS3Ja7K1pf-71" target="-YHRpORkyLnS3Ja7K1pf-82">
          <mxGeometry relative="1" as="geometry">
            <mxPoint x="740" y="110.44444444444446" as="targetPoint" />
            <Array as="points" />
          </mxGeometry>
        </mxCell>
        <mxCell id="-YHRpORkyLnS3Ja7K1pf-79" value="Squad Performance Data" style="edgeLabel;html=1;align=center;verticalAlign=middle;resizable=0;points=[];" vertex="1" connectable="0" parent="-YHRpORkyLnS3Ja7K1pf-78">
          <mxGeometry x="-0.1601" y="3" relative="1" as="geometry">
            <mxPoint as="offset" />
          </mxGeometry>
        </mxCell>
        <mxCell id="-YHRpORkyLnS3Ja7K1pf-126" style="edgeStyle=orthogonalEdgeStyle;rounded=0;orthogonalLoop=1;jettySize=auto;html=1;exitX=0.5;exitY=0;exitDx=0;exitDy=0;entryX=0.5;entryY=0;entryDx=0;entryDy=0;" edge="1" parent="1" source="-YHRpORkyLnS3Ja7K1pf-71" target="-YHRpORkyLnS3Ja7K1pf-87">
          <mxGeometry relative="1" as="geometry" />
        </mxCell>
        <mxCell id="-YHRpORkyLnS3Ja7K1pf-127" value="Squad of Players" style="edgeLabel;html=1;align=center;verticalAlign=middle;resizable=0;points=[];" vertex="1" connectable="0" parent="-YHRpORkyLnS3Ja7K1pf-126">
          <mxGeometry x="-0.5208" y="1" relative="1" as="geometry">
            <mxPoint as="offset" />
          </mxGeometry>
        </mxCell>
        <mxCell id="-YHRpORkyLnS3Ja7K1pf-71" value="Squad Constructor" style="rounded=0;whiteSpace=wrap;html=1;" vertex="1" parent="1">
          <mxGeometry x="340" y="80.44444444444446" width="120" height="60" as="geometry" />
        </mxCell>
        <mxCell id="-YHRpORkyLnS3Ja7K1pf-128" style="edgeStyle=orthogonalEdgeStyle;rounded=0;orthogonalLoop=1;jettySize=auto;html=1;exitX=0.5;exitY=1;exitDx=0;exitDy=0;entryX=0;entryY=0.5;entryDx=0;entryDy=0;" edge="1" parent="1" source="-YHRpORkyLnS3Ja7K1pf-82" target="-YHRpORkyLnS3Ja7K1pf-87">
          <mxGeometry relative="1" as="geometry" />
        </mxCell>
        <mxCell id="-YHRpORkyLnS3Ja7K1pf-129" value="Performance Value / Target Value" style="edgeLabel;html=1;align=center;verticalAlign=middle;resizable=0;points=[];" vertex="1" connectable="0" parent="-YHRpORkyLnS3Ja7K1pf-128">
          <mxGeometry x="-0.1011" relative="1" as="geometry">
            <mxPoint as="offset" />
          </mxGeometry>
        </mxCell>
        <mxCell id="-YHRpORkyLnS3Ja7K1pf-82" value="Squad Performance Calculator" style="rounded=0;whiteSpace=wrap;html=1;" vertex="1" parent="1">
          <mxGeometry x="940" y="80.44" width="120" height="60" as="geometry" />
        </mxCell>
        <mxCell id="-YHRpORkyLnS3Ja7K1pf-87" value="Squad Success Predictor Model" style="ellipse;whiteSpace=wrap;html=1;aspect=fixed;" vertex="1" parent="1">
          <mxGeometry x="1340" y="120" width="110" height="110" as="geometry" />
        </mxCell>
        <mxCell id="-YHRpORkyLnS3Ja7K1pf-99" value="&lt;font style=&quot;font-size: 48px;&quot;&gt;&lt;u&gt;Model Training Process&lt;/u&gt;&lt;/font&gt;" style="text;html=1;align=center;verticalAlign=middle;whiteSpace=wrap;rounded=0;" vertex="1" parent="1">
          <mxGeometry x="-30" y="-150" width="550" height="110" as="geometry" />
        </mxCell>
        <mxCell id="-YHRpORkyLnS3Ja7K1pf-103" value="" style="endArrow=none;html=1;rounded=0;entryX=1;entryY=0.5;entryDx=0;entryDy=0;endFill=0;startArrow=classic;startFill=1;" edge="1" parent="1" target="-YHRpORkyLnS3Ja7K1pf-87">
          <mxGeometry width="50" height="50" relative="1" as="geometry">
            <mxPoint x="1670" y="160" as="sourcePoint" />
            <mxPoint x="1130" y="220" as="targetPoint" />
          </mxGeometry>
        </mxCell>
        <mxCell id="-YHRpORkyLnS3Ja7K1pf-104" value="Predicted Performance Score" style="edgeLabel;html=1;align=center;verticalAlign=middle;resizable=0;points=[];" vertex="1" connectable="0" parent="-YHRpORkyLnS3Ja7K1pf-103">
          <mxGeometry x="0.0933" relative="1" as="geometry">
            <mxPoint x="5" as="offset" />
          </mxGeometry>
        </mxCell>
        <mxCell id="-YHRpORkyLnS3Ja7K1pf-119" style="edgeStyle=orthogonalEdgeStyle;rounded=0;orthogonalLoop=1;jettySize=auto;html=1;exitX=0.5;exitY=1;exitDx=0;exitDy=0;entryX=1;entryY=0.5;entryDx=0;entryDy=0;" edge="1" parent="1" source="-YHRpORkyLnS3Ja7K1pf-106" target="-YHRpORkyLnS3Ja7K1pf-118">
          <mxGeometry relative="1" as="geometry" />
        </mxCell>
        <mxCell id="-YHRpORkyLnS3Ja7K1pf-120" value="Predicted Transfer Score" style="edgeLabel;html=1;align=center;verticalAlign=middle;resizable=0;points=[];" vertex="1" connectable="0" parent="-YHRpORkyLnS3Ja7K1pf-119">
          <mxGeometry x="-0.046" y="2" relative="1" as="geometry">
            <mxPoint x="-31" y="-2" as="offset" />
          </mxGeometry>
        </mxCell>
        <mxCell id="-YHRpORkyLnS3Ja7K1pf-106" value="Trained Squad Performance Model" style="ellipse;whiteSpace=wrap;html=1;" vertex="1" parent="1">
          <mxGeometry x="540" y="960" width="120" height="80" as="geometry" />
        </mxCell>
        <mxCell id="-YHRpORkyLnS3Ja7K1pf-110" style="edgeStyle=orthogonalEdgeStyle;rounded=0;orthogonalLoop=1;jettySize=auto;html=1;exitX=1;exitY=1;exitDx=0;exitDy=0;exitPerimeter=0;entryX=0;entryY=0.5;entryDx=0;entryDy=0;" edge="1" parent="1" source="-YHRpORkyLnS3Ja7K1pf-107" target="-YHRpORkyLnS3Ja7K1pf-108">
          <mxGeometry relative="1" as="geometry" />
        </mxCell>
        <mxCell id="-YHRpORkyLnS3Ja7K1pf-111" value="Team" style="edgeLabel;html=1;align=center;verticalAlign=middle;resizable=0;points=[];" vertex="1" connectable="0" parent="-YHRpORkyLnS3Ja7K1pf-110">
          <mxGeometry x="-0.2397" y="-1" relative="1" as="geometry">
            <mxPoint x="1" as="offset" />
          </mxGeometry>
        </mxCell>
        <mxCell id="-YHRpORkyLnS3Ja7K1pf-107" value="Actor" style="shape=umlActor;verticalLabelPosition=bottom;verticalAlign=top;html=1;outlineConnect=0;" vertex="1" parent="1">
          <mxGeometry x="115" y="620" width="30" height="60" as="geometry" />
        </mxCell>
        <mxCell id="-YHRpORkyLnS3Ja7K1pf-114" style="edgeStyle=orthogonalEdgeStyle;rounded=0;orthogonalLoop=1;jettySize=auto;html=1;exitX=1;exitY=0.75;exitDx=0;exitDy=0;entryX=0;entryY=0;entryDx=0;entryDy=0;" edge="1" parent="1" source="-YHRpORkyLnS3Ja7K1pf-108" target="-YHRpORkyLnS3Ja7K1pf-106">
          <mxGeometry relative="1" as="geometry" />
        </mxCell>
        <mxCell id="-YHRpORkyLnS3Ja7K1pf-121" value="Squad of Players" style="edgeLabel;html=1;align=center;verticalAlign=middle;resizable=0;points=[];" vertex="1" connectable="0" parent="-YHRpORkyLnS3Ja7K1pf-114">
          <mxGeometry x="-0.2513" y="3" relative="1" as="geometry">
            <mxPoint x="-25" as="offset" />
          </mxGeometry>
        </mxCell>
        <mxCell id="-YHRpORkyLnS3Ja7K1pf-108" value="Team Constructor" style="rounded=0;whiteSpace=wrap;html=1;" vertex="1" parent="1">
          <mxGeometry x="300" y="810" width="120" height="60" as="geometry" />
        </mxCell>
        <mxCell id="-YHRpORkyLnS3Ja7K1pf-112" style="edgeStyle=orthogonalEdgeStyle;rounded=0;orthogonalLoop=1;jettySize=auto;html=1;exitX=0.5;exitY=1;exitDx=0;exitDy=0;entryX=0.5;entryY=0;entryDx=0;entryDy=0;" edge="1" parent="1" source="-YHRpORkyLnS3Ja7K1pf-109" target="-YHRpORkyLnS3Ja7K1pf-108">
          <mxGeometry relative="1" as="geometry">
            <Array as="points">
              <mxPoint x="360" y="690" />
            </Array>
          </mxGeometry>
        </mxCell>
        <mxCell id="-YHRpORkyLnS3Ja7K1pf-113" value="Aggregated Team Data" style="edgeLabel;html=1;align=center;verticalAlign=middle;resizable=0;points=[];" vertex="1" connectable="0" parent="-YHRpORkyLnS3Ja7K1pf-112">
          <mxGeometry x="-0.264" relative="1" as="geometry">
            <mxPoint x="-1" as="offset" />
          </mxGeometry>
        </mxCell>
        <mxCell id="-YHRpORkyLnS3Ja7K1pf-115" style="edgeStyle=orthogonalEdgeStyle;rounded=0;orthogonalLoop=1;jettySize=auto;html=1;exitX=1;exitY=0.75;exitDx=0;exitDy=0;entryX=0.5;entryY=0;entryDx=0;entryDy=0;" edge="1" parent="1" source="-YHRpORkyLnS3Ja7K1pf-109" target="-YHRpORkyLnS3Ja7K1pf-106">
          <mxGeometry relative="1" as="geometry" />
        </mxCell>
        <mxCell id="-YHRpORkyLnS3Ja7K1pf-117" value="New Player" style="edgeLabel;html=1;align=center;verticalAlign=middle;resizable=0;points=[];" vertex="1" connectable="0" parent="-YHRpORkyLnS3Ja7K1pf-115">
          <mxGeometry x="0.1457" relative="1" as="geometry">
            <mxPoint x="-1" as="offset" />
          </mxGeometry>
        </mxCell>
        <mxCell id="-YHRpORkyLnS3Ja7K1pf-109" value="Player History" style="rounded=0;whiteSpace=wrap;html=1;" vertex="1" parent="1">
          <mxGeometry x="305" y="630" width="120" height="60" as="geometry" />
        </mxCell>
        <mxCell id="-YHRpORkyLnS3Ja7K1pf-118" value="Performance Scores" style="rounded=0;whiteSpace=wrap;html=1;" vertex="1" parent="1">
          <mxGeometry x="300" y="1080" width="120" height="60" as="geometry" />
        </mxCell>
        <mxCell id="-YHRpORkyLnS3Ja7K1pf-122" style="edgeStyle=orthogonalEdgeStyle;rounded=0;orthogonalLoop=1;jettySize=auto;html=1;exitX=0;exitY=0.5;exitDx=0;exitDy=0;entryX=0;entryY=0.3333333333333333;entryDx=0;entryDy=0;entryPerimeter=0;" edge="1" parent="1" source="-YHRpORkyLnS3Ja7K1pf-118" target="-YHRpORkyLnS3Ja7K1pf-107">
          <mxGeometry relative="1" as="geometry" />
        </mxCell>
        <mxCell id="-YHRpORkyLnS3Ja7K1pf-123" value="Top 10 Performance Scores" style="edgeLabel;html=1;align=center;verticalAlign=middle;resizable=0;points=[];" vertex="1" connectable="0" parent="-YHRpORkyLnS3Ja7K1pf-122">
          <mxGeometry x="-0.0254" relative="1" as="geometry">
            <mxPoint as="offset" />
          </mxGeometry>
        </mxCell>
        <mxCell id="-YHRpORkyLnS3Ja7K1pf-125" value="&lt;font style=&quot;font-size: 48px;&quot;&gt;&lt;u&gt;Recommender System&lt;/u&gt;&lt;/font&gt;" style="text;html=1;align=center;verticalAlign=middle;whiteSpace=wrap;rounded=0;" vertex="1" parent="1">
          <mxGeometry x="-40" y="495" width="550" height="110" as="geometry" />
        </mxCell>
      </root>
    </mxGraphModel>
  </diagram>
</mxfile>
